<?xml version="1.0" standalone="no"?>
<!DOCTYPE svg PUBLIC "-//W3C//DTD SVG 20010904//EN"
 "http://www.w3.org/TR/2001/REC-SVG-20010904/DTD/svg10.dtd">
<svg version="1.0" xmlns="http://www.w3.org/2000/svg"
 width="500.000000pt" height="500.000000pt" viewBox="0 0 500.000000 500.000000"
 preserveAspectRatio="xMidYMid meet">

<g transform="translate(0.000000,500.000000) scale(0.100000,-0.100000)"
fill="#000000" stroke="none">
<path d="M1720 2726 c0 -300 0 -306 20 -306 20 0 20 5 18 302 -3 279 -4 303
-20 306 -17 3 -18 -16 -18 -302z"/>
<path d="M753 2942 c-69 -25 -132 -78 -168 -143 -27 -49 -30 -63 -30 -144 0
-74 4 -97 23 -132 35 -66 79 -110 140 -140 47 -23 70 -28 132 -28 120 1 218
59 270 162 32 63 39 171 16 241 -50 149 -234 237 -383 184z m183 -27 c108 -32
188 -143 188 -260 0 -120 -81 -229 -193 -262 -131 -38 -267 21 -327 142 -23
48 -26 64 -23 133 3 66 9 86 34 128 32 51 104 107 159 123 48 14 107 13 162
-4z"/>
<path d="M695 2834 c-19 -20 -16 -43 8 -58 37 -23 77 35 41 61 -23 17 -29 16
-49 -3z"/>
<path d="M819 2818 c-14 -33 -43 -47 -121 -63 -37 -7 -60 -53 -56 -112 2 -28
8 -48 16 -51 10 -3 13 5 12 29 -3 56 0 83 8 75 4 -4 9 -58 12 -119 5 -104 6
-112 25 -112 18 0 21 8 25 75 5 73 5 74 17 40 7 -19 17 -54 23 -77 10 -41 31
-56 45 -33 3 5 -5 51 -19 102 -41 156 -41 164 -7 184 29 17 51 51 51 79 0 26
-16 16 -31 -17z"/>
<path d="M1357 2826 c-22 -8 -49 -24 -62 -36 l-23 -22 -4 28 c-2 18 -10 30
-20 32 -17 3 -18 -12 -18 -202 0 -199 1 -206 20 -206 19 0 20 7 20 148 1 100
5 154 14 170 22 41 66 62 129 62 51 0 61 -4 95 -34 l37 -34 3 -156 c3 -148 4
-156 23 -156 20 0 20 6 17 159 -3 144 -5 162 -24 188 -44 59 -136 85 -207 59z"/>
<path d="M1859 2788 c10 -24 52 -115 93 -204 l75 -160 -33 -67 c-38 -73 -45
-80 -85 -79 -31 1 -40 -22 -13 -32 29 -11 53 -6 79 17 29 25 279 560 264 565
-24 9 -40 -17 -113 -182 -43 -97 -80 -175 -81 -174 -2 2 -26 55 -55 118 -28
63 -62 125 -76 138 -16 15 -24 32 -22 50 2 35 -8 52 -32 52 -19 0 -19 -1 -1
-42z"/>
<path d="M1578 2145 c2 -14 6 -25 8 -25 2 0 4 11 4 25 0 14 -4 25 -9 25 -4 0
-6 -11 -3 -25z"/>
<path d="M1943 2155 c-14 -9 -23 -27 -23 -41 0 -21 9 -29 50 -46 34 -14 50
-26 50 -39 0 -27 -35 -43 -71 -30 -16 5 -29 6 -29 2 0 -23 76 -28 104 -8 32
24 17 59 -37 85 -39 18 -48 27 -45 45 3 19 9 22 46 21 44 -1 46 10 2 21 -15 3
-34 0 -47 -10z"/>
<path d="M3710 2074 c0 -58 4 -93 10 -89 5 3 7 12 3 20 -3 9 -2 31 1 50 5 26
13 36 32 41 37 10 54 -11 54 -68 0 -34 4 -47 11 -42 16 9 5 104 -12 115 -8 6
-31 8 -52 5 l-38 -4 4 34 c3 19 1 34 -4 34 -5 0 -9 -43 -9 -96z"/>
<path d="M1191 2078 c31 -85 43 -106 52 -91 2 4 15 39 27 78 l23 69 26 -74
c14 -41 30 -75 36 -75 5 0 24 40 41 88 18 48 27 86 21 84 -6 -2 -23 -36 -38
-77 l-26 -74 -23 77 c-13 42 -28 77 -34 77 -7 0 -23 -34 -37 -76 l-24 -77 -26
74 c-14 40 -31 75 -37 77 -6 2 3 -34 19 -80z"/>
<path d="M3033 2153 c27 -4 27 -5 27 -83 0 -43 5 -82 10 -85 6 -4 10 25 10 79
l0 85 33 4 c17 2 1 4 -38 4 -38 0 -58 -2 -42 -4z"/>
<path d="M2080 2131 c0 -11 -6 -22 -12 -24 -10 -4 -10 -6 0 -6 8 -1 12 -18 12
-49 0 -26 5 -53 12 -60 15 -15 58 -16 58 -2 0 6 -6 10 -12 9 -33 -4 -38 2 -38
50 0 46 2 50 28 54 l27 4 -27 2 c-21 1 -28 6 -28 21 0 11 -4 20 -10 20 -5 0
-10 -9 -10 -19z"/>
<path d="M3620 2132 c0 -14 -6 -22 -17 -22 -16 0 -16 -1 0 -12 10 -8 17 -31
19 -63 3 -46 5 -50 31 -53 15 -2 27 1 27 7 0 6 -6 8 -14 5 -20 -8 -38 30 -34
69 2 24 9 33 28 38 l25 6 -25 4 c-14 2 -25 9 -25 16 0 6 -3 15 -7 19 -5 4 -8
-2 -8 -14z"/>
<path d="M1446 2088 c-46 -65 29 -142 90 -92 19 15 19 16 -1 9 -45 -16 -53
-16 -69 0 -26 27 -19 35 33 35 57 0 65 6 48 41 -18 35 -79 39 -101 7z m78 -4
c23 -22 11 -34 -35 -34 -42 0 -44 2 -29 31 13 23 43 25 64 3z"/>
<path d="M1630 2042 c0 -40 4 -61 10 -57 6 3 10 26 10 50 0 38 4 47 28 59 l27
15 -37 -2 -38 -2 0 -63z"/>
<path d="M1714 2085 c-42 -64 33 -137 92 -89 19 15 19 16 -1 9 -45 -16 -53
-16 -69 0 -27 27 -19 35 40 35 53 0 55 1 48 23 -11 36 -25 47 -60 47 -25 0
-38 -7 -50 -25z m80 -1 c23 -22 11 -34 -35 -34 -42 0 -44 2 -29 31 13 23 43
25 64 3z"/>
<path d="M2170 2043 c0 -35 4 -63 10 -63 6 0 10 22 10 50 0 44 3 51 28 64 l27
15 -37 -1 -38 -1 0 -64z"/>
<path d="M2266 2094 c-22 -21 -20 -77 2 -97 25 -23 68 -21 92 3 41 41 13 110
-45 110 -18 0 -41 -7 -49 -16z m78 -10 c24 -23 20 -61 -8 -79 -29 -19 -54 -10
-67 23 -19 51 38 94 75 56z"/>
<path d="M2410 2043 c0 -75 18 -85 22 -12 3 59 25 82 56 63 12 -8 18 -27 20
-63 4 -63 22 -68 22 -5 0 71 -12 85 -70 83 l-50 -2 0 -64z"/>
<path d="M2577 2092 c-23 -25 -21 -68 3 -92 22 -22 60 -26 78 -8 18 18 23 5 8
-22 -10 -22 -18 -25 -60 -23 -33 1 -45 -2 -38 -9 17 -17 79 -13 102 7 16 15
20 30 20 89 l0 71 -48 3 c-37 2 -52 -2 -65 -16z m74 -2 c27 -15 26 -75 -2 -90
-47 -26 -92 46 -53 84 18 19 28 20 55 6z"/>
<path d="M2743 2098 c-26 -33 -20 -91 10 -110 21 -13 64 -9 78 9 12 15 12 16
-6 9 -35 -15 -57 -12 -72 12 -15 22 -15 22 41 22 61 0 68 9 40 48 -17 25 -75
31 -91 10z m77 -17 c15 -29 13 -31 -29 -31 -46 0 -58 12 -35 34 21 22 51 20
64 -3z"/>
<path d="M2880 2043 c0 -35 4 -63 10 -63 6 0 10 22 10 50 0 44 3 51 28 64 l27
15 -37 -1 -38 -1 0 -64z"/>
<path d="M3156 2094 c-22 -21 -20 -77 2 -97 25 -23 68 -21 92 3 41 41 13 110
-45 110 -18 0 -41 -7 -49 -16z m78 -10 c39 -38 -6 -110 -53 -84 -30 16 -32 66
-3 88 21 16 37 15 56 -4z"/>
<path d="M3309 2094 c-20 -24 -16 -84 6 -100 23 -17 67 -18 83 -2 9 9 12 9 12
-3 0 -30 -37 -52 -76 -46 -28 5 -34 3 -26 -5 18 -18 80 -14 99 5 21 21 33 167
14 167 -6 0 -11 -5 -11 -12 0 -9 -3 -9 -12 0 -17 17 -73 15 -89 -4z m86 -14
c35 -39 -9 -104 -55 -80 -44 23 -28 100 20 100 9 0 25 -9 35 -20z"/>
<path d="M3476 2094 c-22 -21 -20 -77 2 -97 23 -21 65 -22 82 -2 15 17 7 19
-21 5 -23 -13 -59 3 -59 25 0 11 13 15 50 15 42 0 50 3 50 18 0 44 -72 69
-104 36z m72 -6 c24 -24 13 -38 -28 -38 -26 0 -40 5 -40 13 0 18 21 37 40 37
9 0 21 -5 28 -12z"/>
<path d="M3870 2091 c-16 -30 -12 -76 8 -94 23 -21 65 -22 82 -2 15 17 7 19
-21 5 -23 -13 -59 3 -59 25 0 11 13 15 50 15 42 0 50 3 50 18 0 47 -88 73
-110 33z m78 -3 c24 -24 13 -38 -28 -38 -26 0 -40 5 -40 13 0 18 21 37 40 37
9 0 21 -5 28 -12z"/>
<path d="M4010 2043 c0 -35 4 -63 10 -63 6 0 10 22 10 50 0 44 3 51 28 64 l27
15 -37 -1 -38 -1 0 -64z"/>
</g>
</svg>
